<svg width="251" height="30" viewBox="0 0 251 30" fill="none" xmlns="http://www.w3.org/2000/svg">
<path d="M0.262 29V27.83C1.414 27.638 2.284 27.416 2.872 27.164C3.46 26.9 3.916 26.516 4.24 26.012C4.564 25.508 4.9 24.8 5.248 23.888L12.034 6.068L10.612 2.864L15.4 0.865999L25.354 25.67C25.57 26.198 25.804 26.612 26.056 26.912C26.32 27.2 26.686 27.41 27.154 27.542C27.634 27.674 28.3 27.77 29.152 27.83V29H15.436V27.83C16.516 27.782 17.338 27.704 17.902 27.596C18.478 27.476 18.82 27.23 18.928 26.858C19.036 26.474 18.934 25.88 18.622 25.076L12.97 9.614H12.826L7.426 24.05C7.138 24.878 7.042 25.538 7.138 26.03C7.246 26.51 7.606 26.888 8.218 27.164C8.83 27.428 9.748 27.65 10.972 27.83V29H0.262ZM7.786 20.45V18.614H18.73V20.45H7.786ZM30.023 29V27.83L33.065 27.128V3.404L30.023 2.738V1.586H41.849V2.738L38.501 3.44V27.146H47.771C48.455 26.126 49.043 25.1 49.535 24.068C50.039 23.024 50.507 21.872 50.939 20.612H52.541L51.083 29H30.023ZM56.6386 29V27.83L60.7966 27.074V3.368H54.6046C53.8366 4.364 53.1826 5.414 52.6426 6.518C52.1146 7.622 51.6766 8.666 51.3286 9.65H50.1046L51.4006 1.586H75.5026L76.8166 9.65H75.5926C75.2326 8.666 74.8006 7.622 74.2966 6.518C73.7926 5.414 73.1566 4.364 72.3886 3.368H66.2146V27.074L70.3366 27.83V29H56.6386ZM74.0198 29V27.83C75.1718 27.638 76.0418 27.416 76.6298 27.164C77.2178 26.9 77.6738 26.516 77.9978 26.012C78.3218 25.508 78.6578 24.8 79.0058 23.888L85.7918 6.068L84.3698 2.864L89.1578 0.865999L99.1118 25.67C99.3278 26.198 99.5618 26.612 99.8138 26.912C100.078 27.2 100.444 27.41 100.912 27.542C101.392 27.674 102.058 27.77 102.91 27.83V29H89.1938V27.83C90.2738 27.782 91.0958 27.704 91.6598 27.596C92.2358 27.476 92.5778 27.23 92.6858 26.858C92.7938 26.474 92.6918 25.88 92.3798 25.076L86.7278 9.614H86.5838L81.1838 24.05C80.8958 24.878 80.7998 25.538 80.8958 26.03C81.0038 26.51 81.3638 26.888 81.9758 27.164C82.5878 27.428 83.5058 27.65 84.7298 27.83V29H74.0198ZM81.5438 20.45V18.614H92.4878V20.45H81.5438Z" fill="white"/>
<path d="M128.112 29.378L118.356 6.464H118.212V27.128L121.362 27.83V29H112.884V27.83L116.052 27.128V3.404L112.884 2.738V1.586H122.748L130.56 20.738H130.776L138.822 1.586H147.498V2.738L144.456 3.44V27.092L147.498 27.83V29H135.942V27.83L139.02 27.092V7.184H138.876L129.588 29.378H128.112ZM148.27 29V27.83C149.422 27.638 150.292 27.416 150.88 27.164C151.468 26.9 151.924 26.516 152.248 26.012C152.572 25.508 152.908 24.8 153.256 23.888L160.042 6.068L158.62 2.864L163.408 0.865999L173.362 25.67C173.578 26.198 173.812 26.612 174.064 26.912C174.328 27.2 174.694 27.41 175.162 27.542C175.642 27.674 176.308 27.77 177.16 27.83V29H163.444V27.83C164.524 27.782 165.346 27.704 165.91 27.596C166.486 27.476 166.828 27.23 166.936 26.858C167.044 26.474 166.942 25.88 166.63 25.076L160.978 9.614H160.834L155.434 24.05C155.146 24.878 155.05 25.538 155.146 26.03C155.254 26.51 155.614 26.888 156.226 27.164C156.838 27.428 157.756 27.65 158.98 27.83V29H148.27ZM155.794 20.45V18.614H166.738V20.45H155.794ZM200.819 29.468L183.251 6.68V27.128L186.401 27.83V29H177.923V27.83L181.091 27.128V3.404L177.923 2.738V1.586H186.887L200.729 19.424V3.404L197.561 2.738V1.586H206.057V2.738L202.853 3.404V29.468H200.819ZM208.757 29V27.83L211.853 27.092V3.44L208.757 2.738V1.586H220.313V2.738L217.271 3.44V27.092L220.313 27.83V29H208.757ZM221.114 29V27.83C222.266 27.638 223.136 27.416 223.724 27.164C224.312 26.9 224.768 26.516 225.092 26.012C225.416 25.508 225.752 24.8 226.1 23.888L232.886 6.068L231.464 2.864L236.252 0.865999L246.206 25.67C246.422 26.198 246.656 26.612 246.908 26.912C247.172 27.2 247.538 27.41 248.006 27.542C248.486 27.674 249.152 27.77 250.004 27.83V29H236.288V27.83C237.368 27.782 238.19 27.704 238.754 27.596C239.33 27.476 239.672 27.23 239.78 26.858C239.888 26.474 239.786 25.88 239.474 25.076L233.822 9.614H233.678L228.278 24.05C227.99 24.878 227.894 25.538 227.99 26.03C228.098 26.51 228.458 26.888 229.07 27.164C229.682 27.428 230.6 27.65 231.824 27.83V29H221.114ZM228.638 20.45V18.614H239.582V20.45H228.638Z" fill="#BA0014"/>
</svg>
