<svg width="63" height="45" viewBox="0 0 63 45" fill="none" xmlns="http://www.w3.org/2000/svg">
<rect width="63" height="45" fill="black"/>
<path d="M40.686 35.378L30.93 12.464H30.786V33.128L33.936 33.83V35H25.458V33.83L28.626 33.128V9.404L25.458 8.738V7.586H35.322L43.134 26.738H43.35L51.396 7.586H60.072V8.738L57.03 9.44V33.092L60.072 33.83V35H48.516V33.83L51.594 33.092V13.184H51.45L42.162 35.378H40.686Z" fill="#BA0014"/>
<path d="M1.262 35V33.83C2.414 33.638 3.284 33.416 3.872 33.164C4.46 32.9 4.916 32.516 5.24 32.012C5.564 31.508 5.9 30.8 6.248 29.888L13.034 12.068L11.612 8.864L16.4 6.866L26.354 31.67C26.57 32.198 26.804 32.612 27.056 32.912C27.32 33.2 27.686 33.41 28.154 33.542C28.634 33.674 29.3 33.77 30.152 33.83V35H16.436V33.83C17.516 33.782 18.338 33.704 18.902 33.596C19.478 33.476 19.82 33.23 19.928 32.858C20.036 32.474 19.934 31.88 19.622 31.076L13.97 15.614H13.826L8.426 30.05C8.138 30.878 8.042 31.538 8.138 32.03C8.246 32.51 8.606 32.888 9.218 33.164C9.83 33.428 10.748 33.65 11.972 33.83V35H1.262ZM8.786 26.45V24.614H19.73V26.45H8.786Z" fill="white"/>
</svg>
